<?xml version="1.0" encoding="UTF-8" standalone="no"?>
<!-- Created with Inkscape (http://www.inkscape.org/) -->

<svg
   width="32"
   height="32"
   viewBox="0 0 32 32"
   version="1.1"
   id="svg1"
   xmlns="http://www.w3.org/2000/svg"
   xmlns:svg="http://www.w3.org/2000/svg">
  <defs
     id="defs1" />
  <g
     id="layer1">
    <path
       id="text1"
       style="font-weight:300;font-size:41.5717px;font-family:'Bookman Old Style';-inkscape-font-specification:'Bookman Old Style Light';fill:#ffffff;fill-opacity:1;stroke-width:4.30122"
       d="m 2,2 v 1.7071522 h 0.7211128 c 1.0152938,0 1.6905363,0.1005574 2.0245145,0.3012621 0.3473373,0.2007048 0.5815998,0.5280336 0.7018317,0.9829644 0.053437,0.2408458 0.079052,0.9171594 0.079052,2.0277261 V 24.760742 c 0,1.083806 -0.092548,1.852814 -0.2795759,2.307746 -0.1870278,0.454931 -0.454756,0.776328 -0.8020934,0.963652 -0.3339777,0.187326 -0.9816762,0.281951 -1.9435335,0.281951 H 2 V 30 h 9.478585 V 28.314091 C 10.463292,28.30071 9.7880482,28.245535 9.4540697,28.151873 9.1200915,28.058211 8.8267475,27.884683 8.5729238,27.630458 8.3324597,27.376231 8.1651294,27.096216 8.0716155,26.788469 8.0048197,26.547623 7.9713538,25.871309 7.9713538,24.760742 V 4.7712256 l 3.7096822,6.1044214 2.132489,3.508932 4.656383,7.664804 c 0.382298,0.04575 0.776421,0.06952 1.178075,0.06952 1.022902,0 1.992282,-0.155478 2.863242,-0.428718 L 16.994904,12.588592 14.902907,9.1395269 10.576229,2 Z m 17.794519,0 v 1.7071522 h 0.721113 c 0.734752,0 1.289903,0.1064888 1.663958,0.3205738 0.374055,0.2140852 0.653628,0.5295511 0.840656,0.9443411 0.187028,0.4147899 0.281503,1.0970349 0.281503,2.0470377 v 1.8558521 4.0670391 8.456584 c 0.548866,-0.233855 1.045305,-0.516942 1.476932,-0.836197 0.364838,-0.269852 0.681002,-0.559312 0.946701,-0.867094 V 14.645287 9.8328161 7.0191048 c 0,-0.8964815 0.100398,-1.5925204 0.300786,-2.0875922 0.213746,-0.495072 0.528712,-0.8361945 0.942845,-1.0235189 0.293901,-0.1338032 0.854973,-0.2008415 1.683239,-0.2008415 h 0.49938 V 2 Z m -0.146536,6.9425478 c -1.377455,0 -2.696209,0.2098228 -3.906349,0.5967308 l 1.380526,2.3540924 c 0.788445,-0.198903 1.638621,-0.308986 2.525823,-0.308986 1.130691,0 2.200529,0.179102 3.16017,0.492448 V 9.324919 C 21.808869,9.0746289 20.747145,8.9425478 19.647983,8.9425478 Z m 6.570995,1.8442662 v 3.445202 c 0.747611,0.862513 1.143369,1.847033 1.143369,2.881302 0,1.419472 -0.745501,2.744809 -2.122848,3.788951 -1.377347,1.044143 -3.366724,1.738051 -5.591516,1.738051 -2.224792,0 -4.214169,-0.693908 -5.591516,-1.738051 -1.377347,-1.044142 -2.122849,-2.369479 -2.122849,-3.788951 0,-1.039625 0.399794,-2.029121 1.154938,-2.89482 l -1.446082,-2.29809 c -1.430468,1.379245 -2.3465093,3.191563 -2.3465093,5.19291 0,2.362634 1.2776913,4.45954 3.1698123,5.893924 1.89212,1.434384 4.41796,2.274916 7.182206,2.274916 2.764246,0 5.292014,-0.840532 7.184134,-2.274916 C 28.724237,21.572858 30,19.475952 30,17.113318 c 0,-2.362633 -1.275763,-4.461471 -3.167883,-5.895854 -0.197608,-0.149805 -0.402119,-0.294083 -0.613139,-0.43065 z m -0.493596,13.691978 c -1.450026,0.760937 -3.124134,1.251903 -4.920534,1.411683 L 23.301749,30 h 2.423633 z" />
  </g>
</svg>
